<svg xmlns="http://www.w3.org/2000/svg" viewBox="0 0 1180 1180" width="1180" height="1180"><rect width="1180" height="1180" fill="#fff"/><text x="590.0" y="24" font-family="'Segoe UI', Arial, sans-serif" font-size="18" font-weight="700" fill="#9a9a9a" text-anchor="middle" letter-spacing="2">WIREFRAME</text><rect x="14" y="38" width="1152" height="78" rx="8" fill="#f4f4f4" stroke="#cfcfcf" stroke-width="1.5" /><rect x="28" y="48" width="150" height="58" rx="8" fill="#f4f4f4" stroke="#cfcfcf" stroke-width="1.5" /><path d="M28,48 L178,106 M178,48 L28,106" stroke="#cfcfcf" stroke-width="1.5"/><line x1="196" y1="52" x2="196" y2="102" stroke="#cfcfcf"/><rect x="212" y="56" width="40" height="40" rx="8" fill="#f4f4f4" stroke="#cfcfcf" stroke-width="1.5" /><path d="M212,56 L252,96 M252,56 L212,96" stroke="#cfcfcf" stroke-width="1.5"/><rect x="266" y="60" width="200" height="14" rx="3" fill="#cfcfcf" stroke="none" stroke-width="1.5" /><rect x="266" y="82" width="320" height="14" rx="3" fill="#cfcfcf" stroke="none" stroke-width="1.5" /><text x="1140" y="84" font-family="'Segoe UI', Arial, sans-serif" font-size="13" font-weight="400" fill="#9a9a9a" text-anchor="end">Sesión: usuario</text><rect x="14" y="130" width="250" height="1036" rx="6" fill="#ececec" stroke="#cfcfcf" stroke-width="1.5" /><text x="30" y="158" font-family="'Segoe UI', Arial, sans-serif" font-size="11.5" font-weight="700" fill="#9a9a9a" text-anchor="start">GESTIÓN DEL PROYECTO</text><rect x="24" y="161" width="230" height="32" rx="6" fill="#f7f7f7" stroke="#cfcfcf" stroke-width="1.5" /><text x="40" y="182" font-family="'Segoe UI', Arial, sans-serif" font-size="14" font-weight="400" fill="#4a4a4a" text-anchor="start">Panel del proyecto</text><rect x="24" y="199" width="230" height="32" rx="6" fill="#f7f7f7" stroke="#cfcfcf" stroke-width="1.5" /><text x="40" y="220" font-family="'Segoe UI', Arial, sans-serif" font-size="14" font-weight="400" fill="#4a4a4a" text-anchor="start">Configuración del proyecto</text><rect x="24" y="237" width="230" height="32" rx="6" fill="#c9c9c9" stroke="#9a9a9a" stroke-width="1.5" /><text x="40" y="258" font-family="'Segoe UI', Arial, sans-serif" font-size="14" font-weight="600" fill="#4a4a4a" text-anchor="start">Evaluación por etapas</text><rect x="24" y="275" width="230" height="32" rx="6" fill="#f7f7f7" stroke="#cfcfcf" stroke-width="1.5" /><text x="40" y="296" font-family="'Segoe UI', Arial, sans-serif" font-size="14" font-weight="400" fill="#4a4a4a" text-anchor="start">   Requerimientos</text><rect x="24" y="313" width="230" height="32" rx="6" fill="#f7f7f7" stroke="#cfcfcf" stroke-width="1.5" /><text x="40" y="334" font-family="'Segoe UI', Arial, sans-serif" font-size="14" font-weight="400" fill="#4a4a4a" text-anchor="start">   Diseño</text><rect x="24" y="351" width="230" height="32" rx="6" fill="#f7f7f7" stroke="#cfcfcf" stroke-width="1.5" /><text x="40" y="372" font-family="'Segoe UI', Arial, sans-serif" font-size="14" font-weight="400" fill="#4a4a4a" text-anchor="start">   Codificación</text><rect x="24" y="389" width="230" height="32" rx="6" fill="#f7f7f7" stroke="#cfcfcf" stroke-width="1.5" /><text x="40" y="410" font-family="'Segoe UI', Arial, sans-serif" font-size="14" font-weight="400" fill="#4a4a4a" text-anchor="start">   Pruebas</text><text x="30" y="448" font-family="'Segoe UI', Arial, sans-serif" font-size="11.5" font-weight="700" fill="#9a9a9a" text-anchor="start">ADMINISTRACIÓN</text><rect x="24" y="451" width="230" height="32" rx="6" fill="#f7f7f7" stroke="#cfcfcf" stroke-width="1.5" /><text x="40" y="472" font-family="'Segoe UI', Arial, sans-serif" font-size="14" font-weight="400" fill="#4a4a4a" text-anchor="start">Limpiar Base de Seguimiento</text><text x="30" y="510" font-family="'Segoe UI', Arial, sans-serif" font-size="11.5" font-weight="700" fill="#9a9a9a" text-anchor="start">SESIÓN</text><rect x="24" y="513" width="230" height="32" rx="6" fill="#f7f7f7" stroke="#cfcfcf" stroke-width="1.5" /><text x="40" y="534" font-family="'Segoe UI', Arial, sans-serif" font-size="14" font-weight="400" fill="#4a4a4a" text-anchor="start">Cerrar sesión</text><rect x="290" y="140" width="5" height="22" fill="#9a9a9a"/><text x="304" y="158" font-family="'Segoe UI', Arial, sans-serif" font-size="17" font-weight="700" fill="#4a4a4a" text-anchor="start">Evaluación por etapas</text><rect x="304" y="170" width="560" height="8" rx="3" fill="#cfcfcf" stroke="none" stroke-width="1.5" /><rect x="290" y="190" width="876" height="96" rx="8" fill="#f4f4f4" stroke="#cfcfcf" stroke-width="1.5" /><rect x="360" y="202" width="40" height="40" rx="20" fill="#cfcfcf" stroke="#9a9a9a" stroke-width="1.5" /><text x="380" y="227" font-family="'Segoe UI', Arial, sans-serif" font-size="13" font-weight="700" fill="#4a4a4a" text-anchor="middle">☷</text><text x="380" y="266" font-family="'Segoe UI', Arial, sans-serif" font-size="13.5" font-weight="400" fill="#4a4a4a" text-anchor="middle">Requerimientos</text><rect x="592" y="202" width="40" height="40" rx="20" fill="#b5b5b5" stroke="#9a9a9a" stroke-width="1.5" /><text x="612" y="227" font-family="'Segoe UI', Arial, sans-serif" font-size="13" font-weight="700" fill="#fff" text-anchor="middle">◇</text><text x="612" y="266" font-family="'Segoe UI', Arial, sans-serif" font-size="13.5" font-weight="700" fill="#4a4a4a" text-anchor="middle">Diseño</text><rect x="824" y="202" width="40" height="40" rx="20" fill="#cfcfcf" stroke="#9a9a9a" stroke-width="1.5" /><text x="844" y="227" font-family="'Segoe UI', Arial, sans-serif" font-size="13" font-weight="700" fill="#4a4a4a" text-anchor="middle">&lt;/&gt;</text><text x="844" y="266" font-family="'Segoe UI', Arial, sans-serif" font-size="13.5" font-weight="400" fill="#4a4a4a" text-anchor="middle">Codificación</text><rect x="1056" y="202" width="40" height="40" rx="20" fill="#cfcfcf" stroke="#9a9a9a" stroke-width="1.5" /><text x="1076" y="227" font-family="'Segoe UI', Arial, sans-serif" font-size="13" font-weight="700" fill="#4a4a4a" text-anchor="middle">✓</text><text x="1076" y="266" font-family="'Segoe UI', Arial, sans-serif" font-size="13.5" font-weight="400" fill="#4a4a4a" text-anchor="middle">Pruebas</text><rect x="290" y="300" width="876" height="70" rx="8" fill="#f4f4f4" stroke="#cfcfcf" stroke-width="1.5" /><text x="310" y="326" font-family="'Segoe UI', Arial, sans-serif" font-size="11.5" font-weight="700" fill="#9a9a9a" text-anchor="start">ETAPA ACTIVA</text><text x="310" y="354" font-family="'Segoe UI', Arial, sans-serif" font-size="22" font-weight="700" fill="#4a4a4a" text-anchor="start">Diseño</text><rect x="950" y="312" width="200" height="46" rx="8" fill="#e2e2e2" stroke="#cfcfcf" stroke-width="1.5" /><text x="966" y="330" font-family="'Segoe UI', Arial, sans-serif" font-size="11" font-weight="400" fill="#9a9a9a" text-anchor="start">Milestone asociado</text><text x="966" y="349" font-family="'Segoe UI', Arial, sans-serif" font-size="14" font-weight="700" fill="#4a4a4a" text-anchor="start">Diseño</text><rect x="290" y="386" width="5" height="22" fill="#9a9a9a"/><text x="304" y="404" font-family="'Segoe UI', Arial, sans-serif" font-size="17" font-weight="700" fill="#4a4a4a" text-anchor="start">Fases de la etapa</text><rect x="290" y="420" width="284" height="40" rx="8" fill="#bdbdbd" stroke="#9a9a9a" stroke-width="1.5" /><text x="432" y="445" font-family="'Segoe UI', Arial, sans-serif" font-size="14" font-weight="600" fill="#4a4a4a" text-anchor="middle">Ocultar entradas</text><rect x="586" y="420" width="284" height="40" rx="8" fill="#f4f4f4" stroke="#9a9a9a" stroke-width="1.5" /><text x="728" y="445" font-family="'Segoe UI', Arial, sans-serif" font-size="14" font-weight="600" fill="#4a4a4a" text-anchor="middle">Ver análisis</text><rect x="882" y="420" width="284" height="40" rx="8" fill="#f4f4f4" stroke="#9a9a9a" stroke-width="1.5" /><text x="1024" y="445" font-family="'Segoe UI', Arial, sans-serif" font-size="14" font-weight="600" fill="#4a4a4a" text-anchor="middle">Ver resultados</text><rect x="290" y="476" width="876" height="650" rx="8" fill="#fcfcfc" stroke="#cfcfcf" stroke-width="1.5" /><rect x="306" y="490" width="30" height="30" rx="15" fill="#9a9a9a" stroke="none" stroke-width="1.5" /><text x="321" y="511" font-family="'Segoe UI', Arial, sans-serif" font-size="15" font-weight="700" fill="#fff" text-anchor="middle">A</text><text x="348" y="512" font-family="'Segoe UI', Arial, sans-serif" font-size="17" font-weight="700" fill="#4a4a4a" text-anchor="start">Revisión de entradas</text><rect x="306" y="532" width="230" height="36" rx="6" fill="#cfcfcf" stroke="#9a9a9a" stroke-width="1.5" /><text x="421" y="555" font-family="'Segoe UI', Arial, sans-serif" font-size="14" font-weight="700" fill="#4a4a4a" text-anchor="middle">Matriz de trazabilidad</text><rect x="542" y="532" width="230" height="36" rx="6" fill="#f4f4f4" stroke="#cfcfcf" stroke-width="1.5" /><text x="657" y="555" font-family="'Segoe UI', Arial, sans-serif" font-size="14" font-weight="400" fill="#4a4a4a" text-anchor="middle">Issues de Diseño</text><rect x="306" y="582" width="844" height="70" rx="8" fill="#f4f4f4" stroke="#cfcfcf" stroke-width="1.5" /><text x="322" y="608" font-family="'Segoe UI', Arial, sans-serif" font-size="15" font-weight="700" fill="#4a4a4a" text-anchor="start">Matriz de trazabilidad · Requerimientos</text><rect x="322" y="620" width="98" height="24" rx="12" fill="#e2e2e2" stroke="#9a9a9a" stroke-width="1.5" /><text x="371" y="637" font-family="'Segoe UI', Arial, sans-serif" font-size="12" font-weight="700" fill="#4a4a4a" text-anchor="middle">ORIGINAL</text><rect x="432" y="620" width="98" height="24" rx="12" fill="#e2e2e2" stroke="#9a9a9a" stroke-width="1.5" /><text x="481" y="637" font-family="'Segoe UI', Arial, sans-serif" font-size="12" font-weight="700" fill="#4a4a4a" text-anchor="middle">VÁLIDA</text><rect x="542" y="620" width="98" height="24" rx="12" fill="#e2e2e2" stroke="#9a9a9a" stroke-width="1.5" /><text x="591" y="637" font-family="'Segoe UI', Arial, sans-serif" font-size="12" font-weight="700" fill="#4a4a4a" text-anchor="middle">30 filas</text><text x="670" y="637" font-family="'Segoe UI', Arial, sans-serif" font-size="13" font-weight="400" fill="#9a9a9a" text-anchor="start">GitLab — Issue TRZ-001 · Versión v1.11</text><text x="306" y="684" font-family="'Segoe UI', Arial, sans-serif" font-size="11.5" font-weight="700" fill="#9a9a9a" text-anchor="start">ACCIONES SOBRE LA MATRIZ</text><rect x="306" y="696" width="272" height="38" rx="8" fill="#f4f4f4" stroke="#9a9a9a" stroke-width="1.5" /><text x="442" y="720" font-family="'Segoe UI', Arial, sans-serif" font-size="14" font-weight="500" fill="#4a4a4a" text-anchor="middle">Actualizar desde GitLab</text><rect x="592" y="696" width="272" height="38" rx="8" fill="#f4f4f4" stroke="#9a9a9a" stroke-width="1.5" /><text x="728" y="720" font-family="'Segoe UI', Arial, sans-serif" font-size="14" font-weight="500" fill="#4a4a4a" text-anchor="middle">Editar en GitLab</text><rect x="878" y="696" width="272" height="38" rx="8" fill="#f4f4f4" stroke="#9a9a9a" stroke-width="1.5" /><text x="1014" y="720" font-family="'Segoe UI', Arial, sans-serif" font-size="14" font-weight="500" fill="#4a4a4a" text-anchor="middle">Editar con Excel</text><rect x="306" y="748" width="844" height="64" rx="8" fill="#fff" stroke="#cfcfcf" stroke-width="1.5" stroke-dasharray="6 5"/><text x="728" y="774" font-family="'Segoe UI', Arial, sans-serif" font-size="14" font-weight="600" fill="#4a4a4a" text-anchor="middle">Cargar matriz modificada</text><text x="728" y="796" font-family="'Segoe UI', Arial, sans-serif" font-size="12.5" font-weight="400" fill="#9a9a9a" text-anchor="middle">Arrastre y suelte un archivo .xlsx o .csv</text><rect x="306" y="828" width="844" height="250" rx="8" fill="#fff" stroke="#cfcfcf" stroke-width="1.5" /><rect x="306" y="828" width="844" height="32" rx="0" fill="#e2e2e2" stroke="#cfcfcf" stroke-width="1.5" /><rect x="320" y="840" width="100" height="9" rx="3" fill="#9a9a9a" stroke="none" stroke-width="1.5" /><rect x="458" y="840" width="100" height="9" rx="3" fill="#9a9a9a" stroke="none" stroke-width="1.5" /><rect x="596" y="840" width="100" height="9" rx="3" fill="#9a9a9a" stroke="none" stroke-width="1.5" /><rect x="734" y="840" width="100" height="9" rx="3" fill="#9a9a9a" stroke="none" stroke-width="1.5" /><rect x="872" y="840" width="100" height="9" rx="3" fill="#9a9a9a" stroke="none" stroke-width="1.5" /><rect x="1010" y="840" width="100" height="9" rx="3" fill="#9a9a9a" stroke="none" stroke-width="1.5" /><rect x="320" y="876" width="80" height="8" rx="3" fill="#cfcfcf" stroke="none" stroke-width="1.5" /><rect x="458" y="876" width="87" height="8" rx="3" fill="#cfcfcf" stroke="none" stroke-width="1.5" /><rect x="596" y="876" width="94" height="8" rx="3" fill="#cfcfcf" stroke="none" stroke-width="1.5" /><rect x="734" y="876" width="101" height="8" rx="3" fill="#cfcfcf" stroke="none" stroke-width="1.5" /><rect x="872" y="876" width="108" height="8" rx="3" fill="#cfcfcf" stroke="none" stroke-width="1.5" /><rect x="1010" y="876" width="115" height="8" rx="3" fill="#cfcfcf" stroke="none" stroke-width="1.5" /><rect x="320" y="908" width="91" height="8" rx="3" fill="#cfcfcf" stroke="none" stroke-width="1.5" /><rect x="458" y="908" width="98" height="8" rx="3" fill="#cfcfcf" stroke="none" stroke-width="1.5" /><rect x="596" y="908" width="105" height="8" rx="3" fill="#cfcfcf" stroke="none" stroke-width="1.5" /><rect x="734" y="908" width="112" height="8" rx="3" fill="#cfcfcf" stroke="none" stroke-width="1.5" /><rect x="872" y="908" width="119" height="8" rx="3" fill="#cfcfcf" stroke="none" stroke-width="1.5" /><rect x="1010" y="908" width="86" height="8" rx="3" fill="#cfcfcf" stroke="none" stroke-width="1.5" /><rect x="320" y="940" width="102" height="8" rx="3" fill="#cfcfcf" stroke="none" stroke-width="1.5" /><rect x="458" y="940" width="109" height="8" rx="3" fill="#cfcfcf" stroke="none" stroke-width="1.5" /><rect x="596" y="940" width="116" height="8" rx="3" fill="#cfcfcf" stroke="none" stroke-width="1.5" /><rect x="734" y="940" width="83" height="8" rx="3" fill="#cfcfcf" stroke="none" stroke-width="1.5" /><rect x="872" y="940" width="90" height="8" rx="3" fill="#cfcfcf" stroke="none" stroke-width="1.5" /><rect x="1010" y="940" width="97" height="8" rx="3" fill="#cfcfcf" stroke="none" stroke-width="1.5" /><rect x="320" y="972" width="113" height="8" rx="3" fill="#cfcfcf" stroke="none" stroke-width="1.5" /><rect x="458" y="972" width="80" height="8" rx="3" fill="#cfcfcf" stroke="none" stroke-width="1.5" /><rect x="596" y="972" width="87" height="8" rx="3" fill="#cfcfcf" stroke="none" stroke-width="1.5" /><rect x="734" y="972" width="94" height="8" rx="3" fill="#cfcfcf" stroke="none" stroke-width="1.5" /><rect x="872" y="972" width="101" height="8" rx="3" fill="#cfcfcf" stroke="none" stroke-width="1.5" /><rect x="1010" y="972" width="108" height="8" rx="3" fill="#cfcfcf" stroke="none" stroke-width="1.5" /><rect x="320" y="1004" width="84" height="8" rx="3" fill="#cfcfcf" stroke="none" stroke-width="1.5" /><rect x="458" y="1004" width="91" height="8" rx="3" fill="#cfcfcf" stroke="none" stroke-width="1.5" /><rect x="596" y="1004" width="98" height="8" rx="3" fill="#cfcfcf" stroke="none" stroke-width="1.5" /><rect x="734" y="1004" width="105" height="8" rx="3" fill="#cfcfcf" stroke="none" stroke-width="1.5" /><rect x="872" y="1004" width="112" height="8" rx="3" fill="#cfcfcf" stroke="none" stroke-width="1.5" /><rect x="1010" y="1004" width="119" height="8" rx="3" fill="#cfcfcf" stroke="none" stroke-width="1.5" /><rect x="320" y="1036" width="95" height="8" rx="3" fill="#cfcfcf" stroke="none" stroke-width="1.5" /><rect x="458" y="1036" width="102" height="8" rx="3" fill="#cfcfcf" stroke="none" stroke-width="1.5" /><rect x="596" y="1036" width="109" height="8" rx="3" fill="#cfcfcf" stroke="none" stroke-width="1.5" /><rect x="734" y="1036" width="116" height="8" rx="3" fill="#cfcfcf" stroke="none" stroke-width="1.5" /><rect x="872" y="1036" width="83" height="8" rx="3" fill="#cfcfcf" stroke="none" stroke-width="1.5" /><rect x="1010" y="1036" width="90" height="8" rx="3" fill="#cfcfcf" stroke="none" stroke-width="1.5" /><rect x="990" y="1088" width="160" height="34" rx="8" fill="#f4f4f4" stroke="#9a9a9a" stroke-width="1.5" /><text x="1070" y="1110" font-family="'Segoe UI', Arial, sans-serif" font-size="13.5" font-weight="600" fill="#4a4a4a" text-anchor="middle">Siguiente fase →</text></svg>